PathFileType	4	(X/Y/Z)	C:\Users\WrightLab\Desktop\Jo\P1_boxCal3.trc
DataRate	CameraRate	NumFrames	NumMarkers	Units	OrigDataRate	OrigDataStartFrame	OrigNumFrames
100.00	100.00	       34	19	mm	100.00	841	       960
Frame#	Time	Headset_Front			Headset_Back			Headset_Left			Headset_Right			Left_Shoulder			Right_Shoulder			Sternum			C7			Left Elbow			Right Elbow			Left Wrist			Right Wrist			Left ASIS			Right ASIS			S2			Left Knee			Right Knee			Left Ankle			Right Ankle			
		X1	Y1	Z1	X2	Y2	Z2	X3	Y3	Z3	X4	Y4	Z4	X5	Y5	Z5	X6	Y6	Z6	X7	Y7	Z7	X8	Y8	Z8	X9	Y9	Z9	X10	Y10	Z10	X11	Y11	Z11	X12	Y12	Z12	X13	Y13	Z13	X14	Y14	Z14	X15	Y15	Z15	X16	Y16	Z16	X17	Y17	Z17	X18	Y18	Z18	X19	Y19	Z19	

841	8.400							-887.03821	818.67346	2484.19604	-738.52704	513.68555	2558.80664				-269.35590	843.40106	2470.27759																															-382.33102	512.99152	2550.98975				-353.97464	159.04030	2625.96118	
842	8.410							-886.12122	817.40356	2483.55762	-738.44324	513.46844	2557.86743	33.76301	986.61694	1838.73254	-269.31198	844.47632	2467.06445																															-382.29599	512.94678	2550.95190				-353.92493	158.97885	2626.15161	
843	8.420							-885.35529	816.80634	2483.94336	-738.32184	513.24646	2556.87695				-268.97034	845.35480	2463.52856																															-381.75150	511.71487	2551.00269				-353.87518	158.90579	2626.09424	
844	8.430							-884.11188	816.40662	2484.20190	-738.25372	513.18207	2556.18750				-268.44055	846.27545	2461.14502																															-381.66467	511.74683	2550.97974				-353.91922	158.81390	2626.06836	
845	8.440										-738.12457	512.84943	2555.24829				-268.36624	847.31451	2458.98682																															-381.13437	511.03439	2551.56323				-353.93301	158.81104	2626.07300	
846	8.450										-737.94208	512.69885	2554.62891				-268.68518	847.38544	2455.13110																															-380.91489	511.36874	2552.26733				-354.00824	158.71008	2626.05615	
847	8.460										-737.81897	512.46979	2553.83325				-267.40237	848.73358	2453.03467																															-380.77548	510.87338	2551.83325				-354.16888	158.45357	2626.70776	
848	8.470										-737.60382	512.25861	2552.75610				-266.65912	849.54376	2451.30615																															-380.71323	512.17163	2553.16431				-354.26428	158.45518	2626.74976	
849	8.480										-737.48010	512.17859	2551.86719				-266.08578	850.21667	2449.11646																															-380.37079	512.11163	2553.57983				-354.34003	158.45474	2626.91284	
850	8.490							26.85317	991.92725	1834.91626	-737.26709	512.06805	2550.88306	-689.70990	790.43762	2255.73511	-264.86337	850.63043	2447.32104																															-379.07449	512.00098	2555.06396				-354.19791	158.27330	2628.98047	
851	8.500										-737.04791	511.87003	2549.90332				-264.03265	851.68921	2446.03809																															-378.74185	512.01910	2554.99951				-354.51920	157.91660	2628.59570	
852	8.510							-882.50397	812.15271	2487.43970	-736.82263	511.86346	2549.10034				-263.00339	852.43237	2445.39404																															-378.14093	511.30978	2554.61084				-354.31686	158.04007	2629.23242	
853	8.520										-736.35962	511.90604	2548.27246	-882.49603	811.99982	2488.48486	-261.76355	853.10431	2443.49316																															-377.81152	511.34818	2554.41895				-354.30219	158.01611	2629.24414	
854	8.530							27.92311	992.66730	1832.98657	-736.10022	511.89685	2547.55420				-260.73956	853.38599	2442.63916							-880.75879	811.15765	2487.63501							-685.88434	790.31213	2258.60596													-377.32962	511.49780	2554.17944				-354.30994	158.04431	2629.29004	
855	8.540										-735.49750	511.74911	2546.67578				-259.75903	853.73468	2442.47192							-880.08521	811.17792	2487.83960																						-376.76523	511.58875	2553.35962				-354.34329	158.12317	2629.33398	
856	8.550										-734.93372	511.55072	2545.50464				-258.59564	854.11096	2441.88379							-878.55652	810.56366	2487.21533																						-376.57623	511.56204	2553.26196				-354.08661	157.20567	2628.59790	
857	8.560										-734.48248	511.60797	2544.57788				-257.45715	854.91840	2442.08228																															-376.23129	511.02014	2551.82666				-354.14734	157.24446	2628.63062	
858	8.570							51.47292	975.44568	1795.60974	-733.94604	511.67923	2543.71802	-676.61206	779.73535	2239.52417	-256.49072	855.28265	2441.28784																															-375.83160	511.03992	2551.36572				-354.50540	157.67409	2628.49561	
859	8.580										-733.48499	511.53769	2542.72949				-255.32660	855.23169	2441.29614																															-375.32889	511.07523	2550.79907				-354.49603	157.59148	2628.41284	
860	8.590										-732.94543	511.44357	2541.61694				-254.15257	855.20117	2441.88208																															-375.13113	511.04456	2550.52222				-354.46155	157.48271	2628.29419	
861	8.600										-732.58948	511.48932	2540.80591				-253.24709	855.46930	2442.13501																															-375.08527	510.96030	2550.45996				-354.47083	157.96277	2627.04688	
862	8.610							-672.92651	779.14240	2240.10620	-732.12408	511.44812	2539.97363				-251.59488	855.13110	2443.29199																															-374.83276	511.10019	2549.99463				-354.42816	158.17659	2626.81519	
863	8.620										-731.73462	511.33167	2539.12866				-250.48259	855.29724	2444.32227																															-374.80496	510.88312	2548.51123				-354.29010	158.37047	2626.85010	
864	8.630							-876.56909	809.22003	2491.64893	-731.40143	511.28503	2538.24414				-249.42490	855.22314	2445.60547																															-374.57458	510.84671	2548.09106				-354.34195	158.19817	2626.78833	
865	8.640										-731.12573	511.28485	2537.38159	-875.62854	808.51245	2491.46875	-248.60367	855.12982	2445.95361																															-374.10236	510.98038	2547.35083				-354.38208	158.19287	2626.80322	
866	8.650										-730.99585	511.29709	2536.71118				-247.14558	854.83826	2448.02856																															-373.81525	511.10751	2546.70166				-354.30682	158.29881	2626.82251	
867	8.660										-730.83264	511.26364	2536.05762				-245.94304	854.87280	2449.29761																															-373.32700	511.20654	2545.94946				-354.21021	158.34286	2626.67163	
868	8.670										-730.43378	511.10812	2535.13013				-245.19910	854.31476	2450.72314																															-373.04337	511.10571	2545.59888				-354.35587	158.25552	2626.69189	
869	8.680										-730.17706	511.11353	2534.42871				-244.10170	854.08490	2453.29077																															-372.86545	511.17480	2545.31836				-354.17191	158.38741	2626.17017	
870	8.690							27.92313	1001.00006	1840.95239	-729.55475	511.06989	2533.72168				-243.21049	853.82465	2454.71411																															-372.61688	511.26093	2544.77979				-354.00845	158.48624	2625.94702	
871	8.700										-729.26404	511.05078	2533.13232				-241.90356	853.30402	2456.51099																															-372.41678	511.36197	2544.28345				-354.11591	158.54153	2626.02051	
872	8.710										-728.73267	511.07736	2532.61816				-240.92094	853.00043	2458.34351																															-372.18381	511.46399	2543.72998				-354.04803	158.43216	2625.93774	
873	8.720										-728.28448	510.98776	2532.13599				-240.01591	852.84821	2460.49854																															-371.92706	511.53299	2543.23145				-354.08957	158.58667	2625.92798	
874	8.730										-727.96869	511.04034	2531.83838				-239.02115	852.35895	2463.01245																															-371.63013	511.72601	2542.58594				-354.17972	158.68881	2625.78052	
